PathFileType	4	(X/Y/Z)	 1.9Hzlow3min.trc
DataRate	CameraRate	NumFrames	NumMarkers	Units	OrigDataRate	OrigDataStartFrame	OrigNumFrames
200	200	10	35	m	200	1	1000
Frame#	Time	C7			LSH			RSH			MAN			RASI			LASI			HIPR			HIPL			RPSI			LPSI			COX			RTHI1			RTHI2			RTHI3			RTHI4			RSHA1			RSHA2			RSHA3			RSHA4			RHEEL			RMET5			RMET1			RTOE			LTHI1			LTHI2			LTHI3			LTHI4			LSHA1			LSHA2			LSHA3			LSHA4			LHEEL			LMET5			LMET1			LTOE			
		X1	Y1	Z1	X2	Y2	Z2	X3	Y3	Z3	X4	Y4	Z4	X5	Y5	Z5	X6	Y6	Z6	X7	Y7	Z7	X8	Y8	Z8	X9	Y9	Z9	X10	Y10	Z10	X11	Y11	Z11	X12	Y12	Z12	X13	Y13	Z13	X14	Y14	Z14	X15	Y15	Z15	X16	Y16	Z16	X17	Y17	Z17	X18	Y18	Z18	X19	Y19	Z19	X20	Y20	Z20	X21	Y21	Z21	X22	Y22	Z22	X23	Y23	Z23	X24	Y24	Z24	X25	Y25	Z25	X26	Y26	Z26	X27	Y27	Z27	X28	Y28	Z28	X29	Y29	Z29	X30	Y30	Z30	X31	Y31	Z31	X32	Y32	Z32	X33	Y33	Z33	X34	Y34	Z34	X35	Y35	Z35	
1	0.0050	-0.313568	1.537385	-0.578516	-0.273118	1.504628	-0.807587	-0.250449	1.502294	-0.372490	-0.168064	1.467886	-0.587577	-0.194159	1.026145	-0.463340	-0.185463	1.017003	-0.683365	-0.250698	1.076311	-0.416946	-0.251002	1.066154	-0.745332	-0.373200	1.062794	-0.524952	-0.376912	1.053473	-0.635246	-0.380498	1.069728	-0.576331	-0.245967	0.775210	-0.372155	-0.219610	0.724674	-0.356458	-0.161264	0.753060	-0.350847	-0.181005	0.809263	-0.368361	-0.300799	0.367574	-0.353512	-0.305561	0.326552	-0.365385	-0.245850	0.323852	-0.351487	-0.244575	0.363023	-0.344561	-0.447769	0.067546	-0.448066	-0.280033	0.027241	-0.344079	-0.224869	0.042144	-0.428858	-0.195521	0.030885	-0.422563	-0.202260	0.773877	-0.796091	-0.174074	0.719683	-0.806071	-0.114954	0.742142	-0.793102	-0.134567	0.798202	-0.781740	-0.233664	0.355419	-0.803922	-0.258397	0.323480	-0.800973	-0.205207	0.291943	-0.788850	-0.186256	0.331756	-0.793980	-0.434583	0.069419	-0.717991	-0.264097	0.025646	-0.809903	-0.206303	0.038138	-0.725808	-0.177713	0.028621	-0.732592	
2	0.0100	-0.313503	1.536146	-0.578436	-0.272698	1.503561	-0.807624	-0.250063	1.501016	-0.372343	-0.167993	1.466496	-0.587521	-0.194439	1.024747	-0.463403	-0.185416	1.015738	-0.683467	-0.251534	1.074843	-0.417012	-0.250808	1.064505	-0.745637	-0.373522	1.061374	-0.525479	-0.376963	1.052366	-0.635718	-0.380711	1.068504	-0.576733	-0.246031	0.774421	-0.372608	-0.219447	0.723752	-0.356468	-0.161212	0.752216	-0.350914	-0.181111	0.808348	-0.368538	-0.299610	0.367044	-0.353003	-0.304790	0.326158	-0.364560	-0.245207	0.323108	-0.351466	-0.243480	0.362231	-0.344266	-0.447885	0.067281	-0.447874	-0.280054	0.027155	-0.343952	-0.224913	0.042097	-0.428778	-0.195602	0.030842	-0.422487	-0.202224	0.772521	-0.796070	-0.174006	0.718207	-0.805993	-0.114975	0.740684	-0.793134	-0.134461	0.796848	-0.781789	-0.232922	0.354293	-0.804105	-0.257688	0.322398	-0.801257	-0.204653	0.290799	-0.788491	-0.185637	0.330585	-0.793654	-0.435166	0.068210	-0.718595	-0.264141	0.025623	-0.810149	-0.206587	0.038161	-0.725811	-0.177968	0.028611	-0.732625	
3	0.0150	-0.313414	1.535313	-0.578351	-0.272384	1.502953	-0.807695	-0.249812	1.500278	-0.372222	-0.167942	1.465613	-0.587468	-0.194553	1.023827	-0.463504	-0.185218	1.014989	-0.683570	-0.252089	1.073708	-0.417118	-0.250276	1.063543	-0.746035	-0.374077	1.060333	-0.525704	-0.376877	1.051722	-0.636173	-0.380950	1.067672	-0.577257	-0.246143	0.773780	-0.372901	-0.219497	0.722999	-0.356467	-0.161349	0.751619	-0.350914	-0.181276	0.807684	-0.368623	-0.299173	0.366627	-0.352164	-0.304379	0.325681	-0.363910	-0.244835	0.322480	-0.351118	-0.242925	0.361597	-0.343823	-0.448014	0.066979	-0.447597	-0.280080	0.027080	-0.343815	-0.225014	0.042070	-0.428666	-0.195668	0.030817	-0.422425	-0.202340	0.771451	-0.796057	-0.174262	0.716959	-0.805950	-0.115184	0.739355	-0.793229	-0.134485	0.795581	-0.781894	-0.232745	0.352892	-0.804179	-0.257510	0.320993	-0.801352	-0.204591	0.289480	-0.787981	-0.185531	0.329260	-0.793242	-0.435769	0.066993	-0.718974	-0.264244	0.025613	-0.810306	-0.206878	0.038163	-0.725784	-0.178253	0.028577	-0.732654	
4	0.0200	-0.313345	1.534621	-0.578274	-0.272108	1.502480	-0.807765	-0.249605	1.499678	-0.372105	-0.167893	1.464875	-0.587414	-0.194589	1.023036	-0.463619	-0.184995	1.014378	-0.683677	-0.252565	1.072692	-0.417228	-0.249755	1.062751	-0.746412	-0.374364	1.059460	-0.526028	-0.376762	1.051207	-0.636609	-0.381156	1.066980	-0.577767	-0.246274	0.773246	-0.373211	-0.219592	0.722366	-0.356488	-0.161517	0.751096	-0.350902	-0.181450	0.807105	-0.368696	-0.298738	0.366068	-0.351533	-0.304054	0.325228	-0.363299	-0.244548	0.321902	-0.350813	-0.242480	0.360941	-0.343433	-0.448140	0.066695	-0.447342	-0.280096	0.027009	-0.343692	-0.225114	0.042039	-0.428557	-0.195736	0.030790	-0.422363	-0.202489	0.770485	-0.796040	-0.174581	0.715820	-0.805910	-0.115435	0.738106	-0.793346	-0.134529	0.794409	-0.782027	-0.232708	0.351471	-0.804214	-0.257457	0.319556	-0.801390	-0.204626	0.288153	-0.787438	-0.185550	0.327928	-0.792815	-0.436342	0.065839	-0.719290	-0.264353	0.025613	-0.810438	-0.207157	0.038162	-0.725748	-0.178540	0.028563	-0.732684	
5	0.0250	-0.313294	1.534308	-0.578203	-0.271926	1.502405	-0.807847	-0.249510	1.499497	-0.371999	-0.167855	1.464573	-0.587362	-0.194480	1.022614	-0.463774	-0.184671	1.014188	-0.683789	-0.252810	1.072003	-0.417359	-0.249112	1.062493	-0.746793	-0.374500	1.058986	-0.526288	-0.376543	1.051079	-0.637015	-0.381303	1.066664	-0.578293	-0.246451	0.772938	-0.373465	-0.219838	0.721959	-0.356527	-0.161808	0.750801	-0.350854	-0.181657	0.806776	-0.368721	-0.298684	0.365525	-0.350993	-0.304006	0.324777	-0.362834	-0.244497	0.321456	-0.350421	-0.242385	0.360377	-0.343061	-0.448253	0.066415	-0.447086	-0.280113	0.026944	-0.343570	-0.225234	0.042015	-0.428442	-0.195797	0.030770	-0.422312	-0.202744	0.769803	-0.796018	-0.175098	0.714922	-0.805879	-0.115824	0.737044	-0.793510	-0.134655	0.793424	-0.782213	-0.233105	0.349940	-0.804150	-0.257793	0.317967	-0.801266	-0.204987	0.286784	-0.786802	-0.185956	0.326574	-0.792340	-0.436877	0.064775	-0.719431	-0.264486	0.025626	-0.810501	-0.207416	0.038145	-0.725696	-0.178823	0.028550	-0.732702	
6	0.0300	-0.313301	1.534395	-0.578152	-0.271860	1.502703	-0.807933	-0.249526	1.499733	-0.371913	-0.167828	1.464689	-0.587311	-0.194248	1.022584	-0.463949	-0.184277	1.014374	-0.683909	-0.252838	1.071653	-0.417498	-0.248521	1.062700	-0.747100	-0.374507	1.058917	-0.526490	-0.376247	1.051302	-0.637366	-0.381402	1.066749	-0.578820	-0.246672	0.772917	-0.373735	-0.220200	0.721874	-0.356634	-0.162171	0.750741	-0.350783	-0.181872	0.806699	-0.368726	-0.299028	0.365128	-0.350414	-0.304184	0.324407	-0.362478	-0.244672	0.321147	-0.350119	-0.242626	0.359992	-0.342575	-0.448355	0.066176	-0.446861	-0.280125	0.026883	-0.343462	-0.225350	0.041973	-0.428327	-0.195858	0.030747	-0.422262	-0.203078	0.769434	-0.795982	-0.175787	0.714337	-0.805830	-0.116312	0.736236	-0.793712	-0.134832	0.792724	-0.782456	-0.233853	0.348460	-0.804001	-0.258424	0.316396	-0.801010	-0.205563	0.285520	-0.786127	-0.186665	0.325343	-0.791854	-0.437317	0.063873	-0.719422	-0.264618	0.025658	-0.810505	-0.207631	0.038124	-0.725630	-0.179069	0.028543	-0.732709	
7	0.0350	-0.313359	1.534904	-0.578115	-0.271900	1.503436	-0.808008	-0.249651	1.500370	-0.371822	-0.167817	1.465297	-0.587258	-0.193857	1.022948	-0.464162	-0.183810	1.014986	-0.684034	-0.252632	1.071722	-0.417643	-0.247911	1.063459	-0.747372	-0.374166	1.059345	-0.526746	-0.375861	1.051928	-0.637646	-0.381337	1.067255	-0.579255	-0.246942	0.773263	-0.374022	-0.220685	0.722172	-0.356800	-0.162615	0.750980	-0.350705	-0.182109	0.806947	-0.368722	-0.299624	0.364797	-0.350173	-0.304627	0.324170	-0.362267	-0.245098	0.321047	-0.349857	-0.243206	0.359846	-0.342340	-0.448465	0.066010	-0.446641	-0.280124	0.026833	-0.343377	-0.225450	0.041939	-0.428232	-0.195910	0.030729	-0.422226	-0.203478	0.769441	-0.795917	-0.176593	0.714140	-0.805750	-0.116889	0.735764	-0.793929	-0.135057	0.792367	-0.782723	-0.234938	0.347174	-0.803747	-0.259333	0.314973	-0.800622	-0.206336	0.284486	-0.785450	-0.187650	0.324371	-0.791380	-0.437634	0.063184	-0.719268	-0.264737	0.025701	-0.810455	-0.207779	0.038098	-0.725552	-0.179241	0.028546	-0.732712	
8	0.0400	-0.313472	1.535845	-0.578095	-0.272047	1.504610	-0.808063	-0.249874	1.501421	-0.371726	-0.167828	1.466407	-0.587207	-0.193345	1.023724	-0.464391	-0.183278	1.016019	-0.684167	-0.252208	1.072260	-0.417779	-0.247305	1.064746	-0.747603	-0.373726	1.060201	-0.526908	-0.375384	1.052950	-0.637857	-0.381095	1.068175	-0.579576	-0.247252	0.774038	-0.374335	-0.221259	0.722896	-0.357020	-0.163117	0.751536	-0.350650	-0.182360	0.807547	-0.368728	-0.300453	0.364596	-0.350086	-0.305320	0.324113	-0.362201	-0.245772	0.321177	-0.349699	-0.244054	0.359914	-0.342129	-0.448527	0.065914	-0.446515	-0.280109	0.026795	-0.343320	-0.225526	0.041909	-0.428158	-0.195953	0.030712	-0.422203	-0.203911	0.769856	-0.795812	-0.177465	0.714348	-0.805622	-0.117511	0.735688	-0.794116	-0.135305	0.792422	-0.782984	-0.236257	0.346274	-0.803396	-0.260438	0.313919	-0.800139	-0.207236	0.283845	-0.784836	-0.188825	0.323823	-0.790939	-0.437810	0.062728	-0.719018	-0.264824	0.025752	-0.810365	-0.207850	0.038072	-0.725474	-0.179311	0.028554	-0.732691	
9	0.0450	-0.313645	1.537211	-0.578088	-0.272301	1.506225	-0.808095	-0.250176	1.502893	-0.371632	-0.167866	1.468018	-0.587164	-0.192728	1.024930	-0.464630	-0.182678	1.017466	-0.684310	-0.251579	1.073302	-0.417904	-0.246710	1.066537	-0.747784	-0.373164	1.061512	-0.527008	-0.374819	1.054350	-0.637992	-0.380682	1.069514	-0.579791	-0.247589	0.775243	-0.374656	-0.221897	0.724039	-0.357280	-0.163648	0.752438	-0.350633	-0.182605	0.808518	-0.368764	-0.301616	0.364782	-0.350171	-0.306241	0.324287	-0.362257	-0.246686	0.321570	-0.349643	-0.245215	0.360304	-0.342138	-0.448584	0.065909	-0.446398	-0.280102	0.026763	-0.343271	-0.225572	0.041885	-0.428109	-0.195984	0.030697	-0.422196	-0.204340	0.770701	-0.795656	-0.178313	0.714988	-0.805390	-0.118127	0.736058	-0.794229	-0.135555	0.792923	-0.783187	-0.237712	0.345937	-0.802966	-0.261653	0.313414	-0.799609	-0.208209	0.283747	-0.784346	-0.190107	0.323840	-0.790558	-0.437856	0.062490	-0.718708	-0.264870	0.025802	-0.810254	-0.207848	0.038044	-0.725401	-0.179276	0.028548	-0.732649	
10	0.0500	-0.313869	1.538977	-0.578091	-0.272651	1.508276	-0.808101	-0.250545	1.504795	-0.371540	-0.167940	1.470124	-0.587127	-0.192001	1.026573	-0.464854	-0.182008	1.019318	-0.684454	-0.250768	1.074885	-0.418013	-0.246073	1.068815	-0.747940	-0.372486	1.063233	-0.527049	-0.374164	1.056116	-0.638036	-0.380100	1.071228	-0.579902	-0.247943	0.776899	-0.374984	-0.222585	0.725636	-0.357574	-0.164199	0.753699	-0.350670	-0.182846	0.809860	-0.368836	-0.303005	0.365238	-0.350350	-0.307387	0.324720	-0.362425	-0.247832	0.322238	-0.349680	-0.246640	0.361068	-0.342203	-0.448639	0.065998	-0.446290	-0.280078	0.026746	-0.343255	-0.225593	0.041869	-0.428084	-0.196001	0.030686	-0.422206	-0.204729	0.771985	-0.795449	-0.179083	0.716108	-0.805099	-0.118696	0.736896	-0.794225	-0.135783	0.793876	-0.783283	-0.239213	0.346272	-0.802478	-0.262932	0.313584	-0.799078	-0.209249	0.284253	-0.784009	-0.191425	0.324466	-0.790245	-0.437789	0.062447	-0.718389	-0.264876	0.025848	-0.810134	-0.207781	0.038022	-0.725330	-0.179164	0.028543	-0.732595	
